<svg xmlns="http://www.w3.org/2000/svg" width="1440" height="820" style="cursor: move;"><g transform="translate(-60.78172296508069,-114.86457688740455) scale(1.3234940729014366)"><path class="link" marker-end="" d="M609,394, 736,402" style="stroke-width: 0.5; stroke-opacity: 1; stroke: rgb(80, 80, 80);"></path><path class="link" marker-end="" d="M609,394, 736,438" style="stroke-width: 0.5; stroke-opacity: 1; stroke: rgb(80, 80, 80);"></path><path class="link" marker-end="" d="M609,410, 736,402" style="stroke-width: 0.5; stroke-opacity: 1; stroke: rgb(80, 80, 80);"></path><path class="link" marker-end="" d="M609,410, 736,438" style="stroke-width: 0.5; stroke-opacity: 1; stroke: rgb(80, 80, 80);"></path><path class="link" marker-end="" d="M736,366, 863,402" style="stroke-width: 0.5; stroke-opacity: 1; stroke: rgb(80, 80, 80);"></path><path class="link" marker-end="" d="M736,402, 863,402" style="stroke-width: 0.5; stroke-opacity: 1; stroke: rgb(80, 80, 80);"></path><path class="link" marker-end="" d="M736,438, 863,402" style="stroke-width: 0.5; stroke-opacity: 1; stroke: rgb(80, 80, 80);"></path><path class="link" marker-end="" d="M609,394, 736,366" style="stroke-width: 0.5; stroke-opacity: 1; stroke: rgb(80, 80, 80);"></path><path class="link" marker-end="" d="M609,410, 736,366" style="stroke-width: 0.5; stroke-opacity: 1; stroke: rgb(80, 80, 80);"></path><circle r="8" class="node" id="0_0" cx="609" cy="394" style="fill: rgb(255, 139, 132); stroke: rgb(51, 51, 51);"></circle><circle r="8" class="node" id="0_1" cx="609" cy="410" style="fill: rgb(255, 139, 132); stroke: rgb(51, 51, 51);"></circle><circle r="8" class="node" id="1_0" cx="736" cy="366" style="fill: rgb(255, 139, 132); stroke: rgb(51, 51, 51);"></circle><circle r="8" class="node" id="1_1" cx="736" cy="402" style="fill: rgb(255, 139, 132); stroke: rgb(51, 51, 51);"></circle><circle r="8" class="node" id="1_2" cx="736" cy="438" style="fill: rgb(255, 139, 132); stroke: rgb(51, 51, 51);"></circle><circle r="8" class="node" id="2_0" cx="863" cy="402" style="fill: rgb(255, 139, 132); stroke: rgb(51, 51, 51);"></circle><text class="text" dy=".35em" x="574" y="474" style="font-size: 12px;"></text><text class="text" dy=".35em" x="701" y="474" style="font-size: 12px;"></text><text class="text" dy=".35em" x="828" y="474" style="font-size: 12px;"></text></g><defs><marker id="arrow" viewBox="0 -5 10 10" markerWidth="7" markerHeight="7" orient="auto" refX="34.4"><path d="M0,-5L10,0L0,5" style="stroke: rgb(80, 80, 80); fill: none;"></path></marker></defs></svg>